<?xml version="1.0" standalone="no"?><!DOCTYPE svg PUBLIC "-//W3C//DTD SVG 1.1//EN" "http://www.w3.org/Graphics/SVG/1.1/DTD/svg11.dtd"><svg t="1617958595687" class="icon" viewBox="0 0 1024 1024" version="1.1" xmlns="http://www.w3.org/2000/svg" p-id="2848" xmlns:xlink="http://www.w3.org/1999/xlink" width="200" height="200"><defs><style type="text/css"></style></defs><path d="M512 32C246.4 32 32 246.4 32 512s214.4 480 480 480 480-214.4 480-480S777.6 32 512 32z m160 566.4c19.2 19.2 19.2 51.2 0 73.6-19.2 19.2-51.2 19.2-73.6 0L512 585.6 425.6 672c-19.2 19.2-51.2 19.2-73.6 0-19.2-19.2-19.2-51.2 0-73.6l86.4-86.4-86.4-86.4c-19.2-19.2-19.2-51.2 0-73.6 19.2-19.2 51.2-19.2 73.6 0l86.4 86.4 86.4-86.4c19.2-19.2 51.2-19.2 73.6 0 19.2 19.2 19.2 51.2 0 73.6L585.6 512l86.4 86.4z" p-id="2849" fill="#F56C6C"></path></svg>